<?xml version="1.0" encoding="utf-8" standalone="no"?>
<!DOCTYPE svg PUBLIC "-//W3C//DTD SVG 1.1//EN"
  "http://www.w3.org/Graphics/SVG/1.1/DTD/svg11.dtd">
<!-- Created with matplotlib (https://matplotlib.org/) -->
<svg height="496.417187pt" version="1.1" viewBox="0 0 1472.178125 496.417187" width="1472.178125pt" xmlns="http://www.w3.org/2000/svg" xmlns:xlink="http://www.w3.org/1999/xlink">
 <metadata>
  <rdf:RDF xmlns:cc="http://creativecommons.org/ns#" xmlns:dc="http://purl.org/dc/elements/1.1/" xmlns:rdf="http://www.w3.org/1999/02/22-rdf-syntax-ns#">
   <cc:Work>
    <dc:type rdf:resource="http://purl.org/dc/dcmitype/StillImage"/>
    <dc:date>2021-02-23T20:01:40.726458</dc:date>
    <dc:format>image/svg+xml</dc:format>
    <dc:creator>
     <cc:Agent>
      <dc:title>Matplotlib v3.3.3, https://matplotlib.org/</dc:title>
     </cc:Agent>
    </dc:creator>
   </cc:Work>
  </rdf:RDF>
 </metadata>
 <defs>
  <style type="text/css">*{stroke-linecap:butt;stroke-linejoin:round;}</style>
 </defs>
 <g id="figure_1">
  <g id="patch_1">
   <path d="M 0 496.417187 
L 1472.178125 496.417187 
L 1472.178125 0 
L 0 0 
z
" style="fill:none;"/>
  </g>
  <g id="axes_1">
   <g id="patch_2">
    <path d="M 69.978125 464.796562 
L 1464.978125 464.796562 
L 1464.978125 29.916562 
L 69.978125 29.916562 
z
" style="fill:#ffffff;"/>
   </g>
   <g id="patch_3">
    <path clip-path="url(#pbb1ab27efb)" d="M 97.878125 464.796562 
L 125.778125 464.796562 
L 125.778125 356.396139 
L 97.878125 356.396139 
z
" style="fill:#3274a1;"/>
   </g>
   <g id="patch_4">
    <path clip-path="url(#pbb1ab27efb)" d="M 376.878125 464.796562 
L 404.778125 464.796562 
L 404.778125 204.021959 
L 376.878125 204.021959 
z
" style="fill:#3274a1;"/>
   </g>
   <g id="patch_5">
    <path clip-path="url(#pbb1ab27efb)" d="M 655.878125 464.796562 
L 683.778125 464.796562 
L 683.778125 212.203123 
L 655.878125 212.203123 
z
" style="fill:#3274a1;"/>
   </g>
   <g id="patch_6">
    <path clip-path="url(#pbb1ab27efb)" d="M 934.878125 464.796562 
L 962.778125 464.796562 
L 962.778125 391.166086 
L 934.878125 391.166086 
z
" style="fill:#3274a1;"/>
   </g>
   <g id="patch_7">
    <path clip-path="url(#pbb1ab27efb)" d="M 1213.878125 464.796562 
L 1241.778125 464.796562 
L 1241.778125 401.392541 
L 1213.878125 401.392541 
z
" style="fill:#3274a1;"/>
   </g>
   <g id="patch_8">
    <path clip-path="url(#pbb1ab27efb)" d="M 125.778125 464.796562 
L 153.678125 464.796562 
L 153.678125 199.931377 
L 125.778125 199.931377 
z
" style="fill:#3a923a;"/>
   </g>
   <g id="patch_9">
    <path clip-path="url(#pbb1ab27efb)" d="M 404.778125 464.796562 
L 432.678125 464.796562 
L 432.678125 363.554658 
L 404.778125 363.554658 
z
" style="fill:#3a923a;"/>
   </g>
   <g id="patch_10">
    <path clip-path="url(#pbb1ab27efb)" d="M 683.778125 464.796562 
L 711.678125 464.796562 
L 711.678125 365.599949 
L 683.778125 365.599949 
z
" style="fill:#3a923a;"/>
   </g>
   <g id="patch_11">
    <path clip-path="url(#pbb1ab27efb)" d="M 962.778125 464.796562 
L 990.678125 464.796562 
L 990.678125 329.807356 
L 962.778125 329.807356 
z
" style="fill:#3a923a;"/>
   </g>
   <g id="patch_12">
    <path clip-path="url(#pbb1ab27efb)" d="M 1241.778125 464.796562 
L 1269.678125 464.796562 
L 1269.678125 333.897938 
L 1241.778125 333.897938 
z
" style="fill:#3a923a;"/>
   </g>
   <g id="patch_13">
    <path clip-path="url(#pbb1ab27efb)" d="M 153.678125 464.796562 
L 181.578125 464.796562 
L 181.578125 322.648838 
L 153.678125 322.648838 
z
"/>
   </g>
   <g id="patch_14">
    <path clip-path="url(#pbb1ab27efb)" d="M 432.678125 464.796562 
L 460.578125 464.796562 
L 460.578125 328.784711 
L 432.678125 328.784711 
z
"/>
   </g>
   <g id="patch_15">
    <path clip-path="url(#pbb1ab27efb)" d="M 711.678125 464.796562 
L 739.578125 464.796562 
L 739.578125 389.120795 
L 711.678125 389.120795 
z
"/>
   </g>
   <g id="patch_16">
    <path clip-path="url(#pbb1ab27efb)" d="M 990.678125 464.796562 
L 1018.578125 464.796562 
L 1018.578125 359.464076 
L 990.678125 359.464076 
z
"/>
   </g>
   <g id="patch_17">
    <path clip-path="url(#pbb1ab27efb)" d="M 1269.678125 464.796562 
L 1297.578125 464.796562 
L 1297.578125 393.211377 
L 1269.678125 393.211377 
z
"/>
   </g>
   <g id="patch_18">
    <path clip-path="url(#pbb1ab27efb)" d="M 181.578125 464.796562 
L 209.478125 464.796562 
L 209.478125 447.411589 
L 181.578125 447.411589 
z
" style="fill:#2eabb8;"/>
   </g>
   <g id="patch_19">
    <path clip-path="url(#pbb1ab27efb)" d="M 460.578125 464.796562 
L 488.478125 464.796562 
L 488.478125 447.411589 
L 460.578125 447.411589 
z
" style="fill:#2eabb8;"/>
   </g>
   <g id="patch_20">
    <path clip-path="url(#pbb1ab27efb)" d="M 739.578125 464.796562 
L 767.478125 464.796562 
L 767.478125 452.524816 
L 739.578125 452.524816 
z
" style="fill:#2eabb8;"/>
   </g>
   <g id="patch_21">
    <path clip-path="url(#pbb1ab27efb)" d="M 1018.578125 464.796562 
L 1046.478125 464.796562 
L 1046.478125 454.570107 
L 1018.578125 454.570107 
z
" style="fill:#2eabb8;"/>
   </g>
   <g id="patch_22">
    <path clip-path="url(#pbb1ab27efb)" d="M 1297.578125 464.796562 
L 1325.478125 464.796562 
L 1325.478125 455.592753 
L 1297.578125 455.592753 
z
" style="fill:#2eabb8;"/>
   </g>
   <g id="patch_23">
    <path clip-path="url(#pbb1ab27efb)" d="M 209.478125 464.796562 
L 237.378125 464.796562 
L 237.378125 174.36524 
L 209.478125 174.36524 
z
" style="fill:#9372b2;"/>
   </g>
   <g id="patch_24">
    <path clip-path="url(#pbb1ab27efb)" d="M 488.478125 464.796562 
L 516.378125 464.796562 
L 516.378125 419.80016 
L 488.478125 419.80016 
z
" style="fill:#9372b2;"/>
   </g>
   <g id="patch_25">
    <path clip-path="url(#pbb1ab27efb)" d="M 767.478125 464.796562 
L 795.378125 464.796562 
L 795.378125 247.995716 
L 767.478125 247.995716 
z
" style="fill:#9372b2;"/>
   </g>
   <g id="patch_26">
    <path clip-path="url(#pbb1ab27efb)" d="M 1046.478125 464.796562 
L 1074.378125 464.796562 
L 1074.378125 374.803758 
L 1046.478125 374.803758 
z
" style="fill:#9372b2;"/>
   </g>
   <g id="patch_27">
    <path clip-path="url(#pbb1ab27efb)" d="M 1325.478125 464.796562 
L 1353.378125 464.796562 
L 1353.378125 289.924182 
L 1325.478125 289.924182 
z
" style="fill:#9372b2;"/>
   </g>
   <g id="patch_28">
    <path clip-path="url(#pbb1ab27efb)" d="M 237.378125 464.796562 
L 265.278125 464.796562 
L 265.278125 153.91233 
L 237.378125 153.91233 
z
" style="fill:#dfc120;"/>
   </g>
   <g id="patch_29">
    <path clip-path="url(#pbb1ab27efb)" d="M 516.378125 464.796562 
L 544.278125 464.796562 
L 544.278125 50.625134 
L 516.378125 50.625134 
z
" style="fill:#dfc120;"/>
   </g>
   <g id="patch_30">
    <path clip-path="url(#pbb1ab27efb)" d="M 795.378125 464.796562 
L 823.278125 464.796562 
L 823.278125 353.328203 
L 795.378125 353.328203 
z
" style="fill:#dfc120;"/>
   </g>
   <g id="patch_31">
    <path clip-path="url(#pbb1ab27efb)" d="M 1074.378125 464.796562 
L 1102.278125 464.796562 
L 1102.278125 324.694129 
L 1074.378125 324.694129 
z
" style="fill:#dfc120;"/>
   </g>
   <g id="patch_32">
    <path clip-path="url(#pbb1ab27efb)" d="M 1353.378125 464.796562 
L 1381.278125 464.796562 
L 1381.278125 355.373494 
L 1353.378125 355.373494 
z
" style="fill:#dfc120;"/>
   </g>
   <g id="patch_33">
    <path clip-path="url(#pbb1ab27efb)" d="M 265.278125 464.796562 
L 293.178125 464.796562 
L 293.178125 450.479525 
L 265.278125 450.479525 
z
" style="fill:#7f7f7f;"/>
   </g>
   <g id="patch_34">
    <path clip-path="url(#pbb1ab27efb)" d="M 544.278125 464.796562 
L 572.178125 464.796562 
L 572.178125 450.479525 
L 544.278125 450.479525 
z
" style="fill:#7f7f7f;"/>
   </g>
   <g id="patch_35">
    <path clip-path="url(#pbb1ab27efb)" d="M 823.278125 464.796562 
L 851.178125 464.796562 
L 851.178125 459.683335 
L 823.278125 459.683335 
z
" style="fill:#7f7f7f;"/>
   </g>
   <g id="patch_36">
    <path clip-path="url(#pbb1ab27efb)" d="M 1102.278125 464.796562 
L 1130.178125 464.796562 
L 1130.178125 461.728626 
L 1102.278125 461.728626 
z
" style="fill:#7f7f7f;"/>
   </g>
   <g id="patch_37">
    <path clip-path="url(#pbb1ab27efb)" d="M 1381.278125 464.796562 
L 1409.178125 464.796562 
L 1409.178125 458.660689 
L 1381.278125 458.660689 
z
" style="fill:#7f7f7f;"/>
   </g>
   <g id="patch_38">
    <path clip-path="url(#pbb1ab27efb)" d="M 293.178125 464.796562 
L 321.078125 464.796562 
L 321.078125 62.89688 
L 293.178125 62.89688 
z
" style="fill:#c03d3e;"/>
   </g>
   <g id="patch_39">
    <path clip-path="url(#pbb1ab27efb)" d="M 572.178125 464.796562 
L 600.078125 464.796562 
L 600.078125 393.211377 
L 572.178125 393.211377 
z
" style="fill:#c03d3e;"/>
   </g>
   <g id="patch_40">
    <path clip-path="url(#pbb1ab27efb)" d="M 851.178125 464.796562 
L 879.078125 464.796562 
L 879.078125 257.199525 
L 851.178125 257.199525 
z
" style="fill:#c03d3e;"/>
   </g>
   <g id="patch_41">
    <path clip-path="url(#pbb1ab27efb)" d="M 1130.178125 464.796562 
L 1158.078125 464.796562 
L 1158.078125 378.89434 
L 1130.178125 378.89434 
z
" style="fill:#c03d3e;"/>
   </g>
   <g id="patch_42">
    <path clip-path="url(#pbb1ab27efb)" d="M 1409.178125 464.796562 
L 1437.078125 464.796562 
L 1437.078125 400.369896 
L 1409.178125 400.369896 
z
" style="fill:#c03d3e;"/>
   </g>
   <g id="matplotlib.axis_1">
    <g id="xtick_1">
     <g id="line2d_1">
      <defs>
       <path d="M 0 0 
L 0 3.5 
" id="m7ee6fe7a15" style="stroke:#000000;stroke-width:0.8;"/>
      </defs>
      <g>
       <use style="stroke:#000000;stroke-width:0.8;" x="209.478125" xlink:href="#m7ee6fe7a15" y="464.796562"/>
      </g>
     </g>
     <g id="text_1">
      <!-- https://www.spiegel.de -->
      <g transform="translate(106.796563 485.47375)scale(0.18 -0.18)">
       <defs>
        <path d="M 54.890625 33.015625 
L 54.890625 0 
L 45.90625 0 
L 45.90625 32.71875 
Q 45.90625 40.484375 42.875 44.328125 
Q 39.84375 48.1875 33.796875 48.1875 
Q 26.515625 48.1875 22.3125 43.546875 
Q 18.109375 38.921875 18.109375 30.90625 
L 18.109375 0 
L 9.078125 0 
L 9.078125 75.984375 
L 18.109375 75.984375 
L 18.109375 46.1875 
Q 21.34375 51.125 25.703125 53.5625 
Q 30.078125 56 35.796875 56 
Q 45.21875 56 50.046875 50.171875 
Q 54.890625 44.34375 54.890625 33.015625 
z
" id="DejaVuSans-104"/>
        <path d="M 18.3125 70.21875 
L 18.3125 54.6875 
L 36.8125 54.6875 
L 36.8125 47.703125 
L 18.3125 47.703125 
L 18.3125 18.015625 
Q 18.3125 11.328125 20.140625 9.421875 
Q 21.96875 7.515625 27.59375 7.515625 
L 36.8125 7.515625 
L 36.8125 0 
L 27.59375 0 
Q 17.1875 0 13.234375 3.875 
Q 9.28125 7.765625 9.28125 18.015625 
L 9.28125 47.703125 
L 2.6875 47.703125 
L 2.6875 54.6875 
L 9.28125 54.6875 
L 9.28125 70.21875 
z
" id="DejaVuSans-116"/>
        <path d="M 18.109375 8.203125 
L 18.109375 -20.796875 
L 9.078125 -20.796875 
L 9.078125 54.6875 
L 18.109375 54.6875 
L 18.109375 46.390625 
Q 20.953125 51.265625 25.265625 53.625 
Q 29.59375 56 35.59375 56 
Q 45.5625 56 51.78125 48.09375 
Q 58.015625 40.1875 58.015625 27.296875 
Q 58.015625 14.40625 51.78125 6.484375 
Q 45.5625 -1.421875 35.59375 -1.421875 
Q 29.59375 -1.421875 25.265625 0.953125 
Q 20.953125 3.328125 18.109375 8.203125 
z
M 48.6875 27.296875 
Q 48.6875 37.203125 44.609375 42.84375 
Q 40.53125 48.484375 33.40625 48.484375 
Q 26.265625 48.484375 22.1875 42.84375 
Q 18.109375 37.203125 18.109375 27.296875 
Q 18.109375 17.390625 22.1875 11.75 
Q 26.265625 6.109375 33.40625 6.109375 
Q 40.53125 6.109375 44.609375 11.75 
Q 48.6875 17.390625 48.6875 27.296875 
z
" id="DejaVuSans-112"/>
        <path d="M 44.28125 53.078125 
L 44.28125 44.578125 
Q 40.484375 46.53125 36.375 47.5 
Q 32.28125 48.484375 27.875 48.484375 
Q 21.1875 48.484375 17.84375 46.4375 
Q 14.5 44.390625 14.5 40.28125 
Q 14.5 37.15625 16.890625 35.375 
Q 19.28125 33.59375 26.515625 31.984375 
L 29.59375 31.296875 
Q 39.15625 29.25 43.1875 25.515625 
Q 47.21875 21.78125 47.21875 15.09375 
Q 47.21875 7.46875 41.1875 3.015625 
Q 35.15625 -1.421875 24.609375 -1.421875 
Q 20.21875 -1.421875 15.453125 -0.5625 
Q 10.6875 0.296875 5.421875 2 
L 5.421875 11.28125 
Q 10.40625 8.6875 15.234375 7.390625 
Q 20.0625 6.109375 24.8125 6.109375 
Q 31.15625 6.109375 34.5625 8.28125 
Q 37.984375 10.453125 37.984375 14.40625 
Q 37.984375 18.0625 35.515625 20.015625 
Q 33.0625 21.96875 24.703125 23.78125 
L 21.578125 24.515625 
Q 13.234375 26.265625 9.515625 29.90625 
Q 5.8125 33.546875 5.8125 39.890625 
Q 5.8125 47.609375 11.28125 51.796875 
Q 16.75 56 26.8125 56 
Q 31.78125 56 36.171875 55.265625 
Q 40.578125 54.546875 44.28125 53.078125 
z
" id="DejaVuSans-115"/>
        <path d="M 11.71875 12.40625 
L 22.015625 12.40625 
L 22.015625 0 
L 11.71875 0 
z
M 11.71875 51.703125 
L 22.015625 51.703125 
L 22.015625 39.3125 
L 11.71875 39.3125 
z
" id="DejaVuSans-58"/>
        <path d="M 25.390625 72.90625 
L 33.6875 72.90625 
L 8.296875 -9.28125 
L 0 -9.28125 
z
" id="DejaVuSans-47"/>
        <path d="M 4.203125 54.6875 
L 13.1875 54.6875 
L 24.421875 12.015625 
L 35.59375 54.6875 
L 46.1875 54.6875 
L 57.421875 12.015625 
L 68.609375 54.6875 
L 77.59375 54.6875 
L 63.28125 0 
L 52.6875 0 
L 40.921875 44.828125 
L 29.109375 0 
L 18.5 0 
z
" id="DejaVuSans-119"/>
        <path d="M 10.6875 12.40625 
L 21 12.40625 
L 21 0 
L 10.6875 0 
z
" id="DejaVuSans-46"/>
        <path d="M 9.421875 54.6875 
L 18.40625 54.6875 
L 18.40625 0 
L 9.421875 0 
z
M 9.421875 75.984375 
L 18.40625 75.984375 
L 18.40625 64.59375 
L 9.421875 64.59375 
z
" id="DejaVuSans-105"/>
        <path d="M 56.203125 29.59375 
L 56.203125 25.203125 
L 14.890625 25.203125 
Q 15.484375 15.921875 20.484375 11.0625 
Q 25.484375 6.203125 34.421875 6.203125 
Q 39.59375 6.203125 44.453125 7.46875 
Q 49.3125 8.734375 54.109375 11.28125 
L 54.109375 2.78125 
Q 49.265625 0.734375 44.1875 -0.34375 
Q 39.109375 -1.421875 33.890625 -1.421875 
Q 20.796875 -1.421875 13.15625 6.1875 
Q 5.515625 13.8125 5.515625 26.8125 
Q 5.515625 40.234375 12.765625 48.109375 
Q 20.015625 56 32.328125 56 
Q 43.359375 56 49.78125 48.890625 
Q 56.203125 41.796875 56.203125 29.59375 
z
M 47.21875 32.234375 
Q 47.125 39.59375 43.09375 43.984375 
Q 39.0625 48.390625 32.421875 48.390625 
Q 24.90625 48.390625 20.390625 44.140625 
Q 15.875 39.890625 15.1875 32.171875 
z
" id="DejaVuSans-101"/>
        <path d="M 45.40625 27.984375 
Q 45.40625 37.75 41.375 43.109375 
Q 37.359375 48.484375 30.078125 48.484375 
Q 22.859375 48.484375 18.828125 43.109375 
Q 14.796875 37.75 14.796875 27.984375 
Q 14.796875 18.265625 18.828125 12.890625 
Q 22.859375 7.515625 30.078125 7.515625 
Q 37.359375 7.515625 41.375 12.890625 
Q 45.40625 18.265625 45.40625 27.984375 
z
M 54.390625 6.78125 
Q 54.390625 -7.171875 48.1875 -13.984375 
Q 42 -20.796875 29.203125 -20.796875 
Q 24.46875 -20.796875 20.265625 -20.09375 
Q 16.0625 -19.390625 12.109375 -17.921875 
L 12.109375 -9.1875 
Q 16.0625 -11.328125 19.921875 -12.34375 
Q 23.78125 -13.375 27.78125 -13.375 
Q 36.625 -13.375 41.015625 -8.765625 
Q 45.40625 -4.15625 45.40625 5.171875 
L 45.40625 9.625 
Q 42.625 4.78125 38.28125 2.390625 
Q 33.9375 0 27.875 0 
Q 17.828125 0 11.671875 7.65625 
Q 5.515625 15.328125 5.515625 27.984375 
Q 5.515625 40.671875 11.671875 48.328125 
Q 17.828125 56 27.875 56 
Q 33.9375 56 38.28125 53.609375 
Q 42.625 51.21875 45.40625 46.390625 
L 45.40625 54.6875 
L 54.390625 54.6875 
z
" id="DejaVuSans-103"/>
        <path d="M 9.421875 75.984375 
L 18.40625 75.984375 
L 18.40625 0 
L 9.421875 0 
z
" id="DejaVuSans-108"/>
        <path d="M 45.40625 46.390625 
L 45.40625 75.984375 
L 54.390625 75.984375 
L 54.390625 0 
L 45.40625 0 
L 45.40625 8.203125 
Q 42.578125 3.328125 38.25 0.953125 
Q 33.9375 -1.421875 27.875 -1.421875 
Q 17.96875 -1.421875 11.734375 6.484375 
Q 5.515625 14.40625 5.515625 27.296875 
Q 5.515625 40.1875 11.734375 48.09375 
Q 17.96875 56 27.875 56 
Q 33.9375 56 38.25 53.625 
Q 42.578125 51.265625 45.40625 46.390625 
z
M 14.796875 27.296875 
Q 14.796875 17.390625 18.875 11.75 
Q 22.953125 6.109375 30.078125 6.109375 
Q 37.203125 6.109375 41.296875 11.75 
Q 45.40625 17.390625 45.40625 27.296875 
Q 45.40625 37.203125 41.296875 42.84375 
Q 37.203125 48.484375 30.078125 48.484375 
Q 22.953125 48.484375 18.875 42.84375 
Q 14.796875 37.203125 14.796875 27.296875 
z
" id="DejaVuSans-100"/>
       </defs>
       <use xlink:href="#DejaVuSans-104"/>
       <use x="63.378906" xlink:href="#DejaVuSans-116"/>
       <use x="102.587891" xlink:href="#DejaVuSans-116"/>
       <use x="141.796875" xlink:href="#DejaVuSans-112"/>
       <use x="205.273438" xlink:href="#DejaVuSans-115"/>
       <use x="257.373047" xlink:href="#DejaVuSans-58"/>
       <use x="291.064453" xlink:href="#DejaVuSans-47"/>
       <use x="324.755859" xlink:href="#DejaVuSans-47"/>
       <use x="358.447266" xlink:href="#DejaVuSans-119"/>
       <use x="440.234375" xlink:href="#DejaVuSans-119"/>
       <use x="522.021484" xlink:href="#DejaVuSans-119"/>
       <use x="594.683594" xlink:href="#DejaVuSans-46"/>
       <use x="626.470703" xlink:href="#DejaVuSans-115"/>
       <use x="678.570312" xlink:href="#DejaVuSans-112"/>
       <use x="742.046875" xlink:href="#DejaVuSans-105"/>
       <use x="769.830078" xlink:href="#DejaVuSans-101"/>
       <use x="831.353516" xlink:href="#DejaVuSans-103"/>
       <use x="894.830078" xlink:href="#DejaVuSans-101"/>
       <use x="956.353516" xlink:href="#DejaVuSans-108"/>
       <use x="984.136719" xlink:href="#DejaVuSans-46"/>
       <use x="1015.923828" xlink:href="#DejaVuSans-100"/>
       <use x="1079.400391" xlink:href="#DejaVuSans-101"/>
      </g>
     </g>
    </g>
    <g id="xtick_2">
     <g id="line2d_2">
      <g>
       <use style="stroke:#000000;stroke-width:0.8;" x="488.478125" xlink:href="#m7ee6fe7a15" y="464.796562"/>
      </g>
     </g>
     <g id="text_2">
      <!-- https://www.welt.de -->
      <g transform="translate(399.061719 485.47375)scale(0.18 -0.18)">
       <use xlink:href="#DejaVuSans-104"/>
       <use x="63.378906" xlink:href="#DejaVuSans-116"/>
       <use x="102.587891" xlink:href="#DejaVuSans-116"/>
       <use x="141.796875" xlink:href="#DejaVuSans-112"/>
       <use x="205.273438" xlink:href="#DejaVuSans-115"/>
       <use x="257.373047" xlink:href="#DejaVuSans-58"/>
       <use x="291.064453" xlink:href="#DejaVuSans-47"/>
       <use x="324.755859" xlink:href="#DejaVuSans-47"/>
       <use x="358.447266" xlink:href="#DejaVuSans-119"/>
       <use x="440.234375" xlink:href="#DejaVuSans-119"/>
       <use x="522.021484" xlink:href="#DejaVuSans-119"/>
       <use x="594.683594" xlink:href="#DejaVuSans-46"/>
       <use x="626.470703" xlink:href="#DejaVuSans-119"/>
       <use x="708.257812" xlink:href="#DejaVuSans-101"/>
       <use x="769.78125" xlink:href="#DejaVuSans-108"/>
       <use x="797.564453" xlink:href="#DejaVuSans-116"/>
       <use x="836.773438" xlink:href="#DejaVuSans-46"/>
       <use x="868.560547" xlink:href="#DejaVuSans-100"/>
       <use x="932.037109" xlink:href="#DejaVuSans-101"/>
      </g>
     </g>
    </g>
    <g id="xtick_3">
     <g id="line2d_3">
      <g>
       <use style="stroke:#000000;stroke-width:0.8;" x="767.478125" xlink:href="#m7ee6fe7a15" y="464.796562"/>
      </g>
     </g>
     <g id="text_3">
      <!-- https://www.youtube.com -->
      <g transform="translate(651.996875 485.47375)scale(0.18 -0.18)">
       <defs>
        <path d="M 32.171875 -5.078125 
Q 28.375 -14.84375 24.75 -17.8125 
Q 21.140625 -20.796875 15.09375 -20.796875 
L 7.90625 -20.796875 
L 7.90625 -13.28125 
L 13.1875 -13.28125 
Q 16.890625 -13.28125 18.9375 -11.515625 
Q 21 -9.765625 23.484375 -3.21875 
L 25.09375 0.875 
L 2.984375 54.6875 
L 12.5 54.6875 
L 29.59375 11.921875 
L 46.6875 54.6875 
L 56.203125 54.6875 
z
" id="DejaVuSans-121"/>
        <path d="M 30.609375 48.390625 
Q 23.390625 48.390625 19.1875 42.75 
Q 14.984375 37.109375 14.984375 27.296875 
Q 14.984375 17.484375 19.15625 11.84375 
Q 23.34375 6.203125 30.609375 6.203125 
Q 37.796875 6.203125 41.984375 11.859375 
Q 46.1875 17.53125 46.1875 27.296875 
Q 46.1875 37.015625 41.984375 42.703125 
Q 37.796875 48.390625 30.609375 48.390625 
z
M 30.609375 56 
Q 42.328125 56 49.015625 48.375 
Q 55.71875 40.765625 55.71875 27.296875 
Q 55.71875 13.875 49.015625 6.21875 
Q 42.328125 -1.421875 30.609375 -1.421875 
Q 18.84375 -1.421875 12.171875 6.21875 
Q 5.515625 13.875 5.515625 27.296875 
Q 5.515625 40.765625 12.171875 48.375 
Q 18.84375 56 30.609375 56 
z
" id="DejaVuSans-111"/>
        <path d="M 8.5 21.578125 
L 8.5 54.6875 
L 17.484375 54.6875 
L 17.484375 21.921875 
Q 17.484375 14.15625 20.5 10.265625 
Q 23.53125 6.390625 29.59375 6.390625 
Q 36.859375 6.390625 41.078125 11.03125 
Q 45.3125 15.671875 45.3125 23.6875 
L 45.3125 54.6875 
L 54.296875 54.6875 
L 54.296875 0 
L 45.3125 0 
L 45.3125 8.40625 
Q 42.046875 3.421875 37.71875 1 
Q 33.40625 -1.421875 27.6875 -1.421875 
Q 18.265625 -1.421875 13.375 4.4375 
Q 8.5 10.296875 8.5 21.578125 
z
M 31.109375 56 
z
" id="DejaVuSans-117"/>
        <path d="M 48.6875 27.296875 
Q 48.6875 37.203125 44.609375 42.84375 
Q 40.53125 48.484375 33.40625 48.484375 
Q 26.265625 48.484375 22.1875 42.84375 
Q 18.109375 37.203125 18.109375 27.296875 
Q 18.109375 17.390625 22.1875 11.75 
Q 26.265625 6.109375 33.40625 6.109375 
Q 40.53125 6.109375 44.609375 11.75 
Q 48.6875 17.390625 48.6875 27.296875 
z
M 18.109375 46.390625 
Q 20.953125 51.265625 25.265625 53.625 
Q 29.59375 56 35.59375 56 
Q 45.5625 56 51.78125 48.09375 
Q 58.015625 40.1875 58.015625 27.296875 
Q 58.015625 14.40625 51.78125 6.484375 
Q 45.5625 -1.421875 35.59375 -1.421875 
Q 29.59375 -1.421875 25.265625 0.953125 
Q 20.953125 3.328125 18.109375 8.203125 
L 18.109375 0 
L 9.078125 0 
L 9.078125 75.984375 
L 18.109375 75.984375 
z
" id="DejaVuSans-98"/>
        <path d="M 48.78125 52.59375 
L 48.78125 44.1875 
Q 44.96875 46.296875 41.140625 47.34375 
Q 37.3125 48.390625 33.40625 48.390625 
Q 24.65625 48.390625 19.8125 42.84375 
Q 14.984375 37.3125 14.984375 27.296875 
Q 14.984375 17.28125 19.8125 11.734375 
Q 24.65625 6.203125 33.40625 6.203125 
Q 37.3125 6.203125 41.140625 7.25 
Q 44.96875 8.296875 48.78125 10.40625 
L 48.78125 2.09375 
Q 45.015625 0.34375 40.984375 -0.53125 
Q 36.96875 -1.421875 32.421875 -1.421875 
Q 20.0625 -1.421875 12.78125 6.34375 
Q 5.515625 14.109375 5.515625 27.296875 
Q 5.515625 40.671875 12.859375 48.328125 
Q 20.21875 56 33.015625 56 
Q 37.15625 56 41.109375 55.140625 
Q 45.0625 54.296875 48.78125 52.59375 
z
" id="DejaVuSans-99"/>
        <path d="M 52 44.1875 
Q 55.375 50.25 60.0625 53.125 
Q 64.75 56 71.09375 56 
Q 79.640625 56 84.28125 50.015625 
Q 88.921875 44.046875 88.921875 33.015625 
L 88.921875 0 
L 79.890625 0 
L 79.890625 32.71875 
Q 79.890625 40.578125 77.09375 44.375 
Q 74.3125 48.1875 68.609375 48.1875 
Q 61.625 48.1875 57.5625 43.546875 
Q 53.515625 38.921875 53.515625 30.90625 
L 53.515625 0 
L 44.484375 0 
L 44.484375 32.71875 
Q 44.484375 40.625 41.703125 44.40625 
Q 38.921875 48.1875 33.109375 48.1875 
Q 26.21875 48.1875 22.15625 43.53125 
Q 18.109375 38.875 18.109375 30.90625 
L 18.109375 0 
L 9.078125 0 
L 9.078125 54.6875 
L 18.109375 54.6875 
L 18.109375 46.1875 
Q 21.1875 51.21875 25.484375 53.609375 
Q 29.78125 56 35.6875 56 
Q 41.65625 56 45.828125 52.96875 
Q 50 49.953125 52 44.1875 
z
" id="DejaVuSans-109"/>
       </defs>
       <use xlink:href="#DejaVuSans-104"/>
       <use x="63.378906" xlink:href="#DejaVuSans-116"/>
       <use x="102.587891" xlink:href="#DejaVuSans-116"/>
       <use x="141.796875" xlink:href="#DejaVuSans-112"/>
       <use x="205.273438" xlink:href="#DejaVuSans-115"/>
       <use x="257.373047" xlink:href="#DejaVuSans-58"/>
       <use x="291.064453" xlink:href="#DejaVuSans-47"/>
       <use x="324.755859" xlink:href="#DejaVuSans-47"/>
       <use x="358.447266" xlink:href="#DejaVuSans-119"/>
       <use x="440.234375" xlink:href="#DejaVuSans-119"/>
       <use x="522.021484" xlink:href="#DejaVuSans-119"/>
       <use x="594.683594" xlink:href="#DejaVuSans-46"/>
       <use x="626.470703" xlink:href="#DejaVuSans-121"/>
       <use x="685.650391" xlink:href="#DejaVuSans-111"/>
       <use x="746.832031" xlink:href="#DejaVuSans-117"/>
       <use x="810.210938" xlink:href="#DejaVuSans-116"/>
       <use x="849.419922" xlink:href="#DejaVuSans-117"/>
       <use x="912.798828" xlink:href="#DejaVuSans-98"/>
       <use x="976.275391" xlink:href="#DejaVuSans-101"/>
       <use x="1037.798828" xlink:href="#DejaVuSans-46"/>
       <use x="1069.585938" xlink:href="#DejaVuSans-99"/>
       <use x="1124.566406" xlink:href="#DejaVuSans-111"/>
       <use x="1185.748047" xlink:href="#DejaVuSans-109"/>
      </g>
     </g>
    </g>
    <g id="xtick_4">
     <g id="line2d_4">
      <g>
       <use style="stroke:#000000;stroke-width:0.8;" x="1046.478125" xlink:href="#m7ee6fe7a15" y="464.796562"/>
      </g>
     </g>
     <g id="text_4">
      <!-- https://www.tagesspiegel.de -->
      <g transform="translate(918.813125 485.47375)scale(0.18 -0.18)">
       <defs>
        <path d="M 34.28125 27.484375 
Q 23.390625 27.484375 19.1875 25 
Q 14.984375 22.515625 14.984375 16.5 
Q 14.984375 11.71875 18.140625 8.90625 
Q 21.296875 6.109375 26.703125 6.109375 
Q 34.1875 6.109375 38.703125 11.40625 
Q 43.21875 16.703125 43.21875 25.484375 
L 43.21875 27.484375 
z
M 52.203125 31.203125 
L 52.203125 0 
L 43.21875 0 
L 43.21875 8.296875 
Q 40.140625 3.328125 35.546875 0.953125 
Q 30.953125 -1.421875 24.3125 -1.421875 
Q 15.921875 -1.421875 10.953125 3.296875 
Q 6 8.015625 6 15.921875 
Q 6 25.140625 12.171875 29.828125 
Q 18.359375 34.515625 30.609375 34.515625 
L 43.21875 34.515625 
L 43.21875 35.40625 
Q 43.21875 41.609375 39.140625 45 
Q 35.0625 48.390625 27.6875 48.390625 
Q 23 48.390625 18.546875 47.265625 
Q 14.109375 46.140625 10.015625 43.890625 
L 10.015625 52.203125 
Q 14.9375 54.109375 19.578125 55.046875 
Q 24.21875 56 28.609375 56 
Q 40.484375 56 46.34375 49.84375 
Q 52.203125 43.703125 52.203125 31.203125 
z
" id="DejaVuSans-97"/>
       </defs>
       <use xlink:href="#DejaVuSans-104"/>
       <use x="63.378906" xlink:href="#DejaVuSans-116"/>
       <use x="102.587891" xlink:href="#DejaVuSans-116"/>
       <use x="141.796875" xlink:href="#DejaVuSans-112"/>
       <use x="205.273438" xlink:href="#DejaVuSans-115"/>
       <use x="257.373047" xlink:href="#DejaVuSans-58"/>
       <use x="291.064453" xlink:href="#DejaVuSans-47"/>
       <use x="324.755859" xlink:href="#DejaVuSans-47"/>
       <use x="358.447266" xlink:href="#DejaVuSans-119"/>
       <use x="440.234375" xlink:href="#DejaVuSans-119"/>
       <use x="522.021484" xlink:href="#DejaVuSans-119"/>
       <use x="594.683594" xlink:href="#DejaVuSans-46"/>
       <use x="626.470703" xlink:href="#DejaVuSans-116"/>
       <use x="665.679688" xlink:href="#DejaVuSans-97"/>
       <use x="726.958984" xlink:href="#DejaVuSans-103"/>
       <use x="790.435547" xlink:href="#DejaVuSans-101"/>
       <use x="851.958984" xlink:href="#DejaVuSans-115"/>
       <use x="904.058594" xlink:href="#DejaVuSans-115"/>
       <use x="956.158203" xlink:href="#DejaVuSans-112"/>
       <use x="1019.634766" xlink:href="#DejaVuSans-105"/>
       <use x="1047.417969" xlink:href="#DejaVuSans-101"/>
       <use x="1108.941406" xlink:href="#DejaVuSans-103"/>
       <use x="1172.417969" xlink:href="#DejaVuSans-101"/>
       <use x="1233.941406" xlink:href="#DejaVuSans-108"/>
       <use x="1261.724609" xlink:href="#DejaVuSans-46"/>
       <use x="1293.511719" xlink:href="#DejaVuSans-100"/>
       <use x="1356.988281" xlink:href="#DejaVuSans-101"/>
      </g>
     </g>
    </g>
    <g id="xtick_5">
     <g id="line2d_5">
      <g>
       <use style="stroke:#000000;stroke-width:0.8;" x="1325.478125" xlink:href="#m7ee6fe7a15" y="464.796562"/>
      </g>
     </g>
     <g id="text_5">
      <!-- https://www.tagesschau.de -->
      <g transform="translate(1203.445156 485.47375)scale(0.18 -0.18)">
       <use xlink:href="#DejaVuSans-104"/>
       <use x="63.378906" xlink:href="#DejaVuSans-116"/>
       <use x="102.587891" xlink:href="#DejaVuSans-116"/>
       <use x="141.796875" xlink:href="#DejaVuSans-112"/>
       <use x="205.273438" xlink:href="#DejaVuSans-115"/>
       <use x="257.373047" xlink:href="#DejaVuSans-58"/>
       <use x="291.064453" xlink:href="#DejaVuSans-47"/>
       <use x="324.755859" xlink:href="#DejaVuSans-47"/>
       <use x="358.447266" xlink:href="#DejaVuSans-119"/>
       <use x="440.234375" xlink:href="#DejaVuSans-119"/>
       <use x="522.021484" xlink:href="#DejaVuSans-119"/>
       <use x="594.683594" xlink:href="#DejaVuSans-46"/>
       <use x="626.470703" xlink:href="#DejaVuSans-116"/>
       <use x="665.679688" xlink:href="#DejaVuSans-97"/>
       <use x="726.958984" xlink:href="#DejaVuSans-103"/>
       <use x="790.435547" xlink:href="#DejaVuSans-101"/>
       <use x="851.958984" xlink:href="#DejaVuSans-115"/>
       <use x="904.058594" xlink:href="#DejaVuSans-115"/>
       <use x="956.158203" xlink:href="#DejaVuSans-99"/>
       <use x="1011.138672" xlink:href="#DejaVuSans-104"/>
       <use x="1074.517578" xlink:href="#DejaVuSans-97"/>
       <use x="1135.796875" xlink:href="#DejaVuSans-117"/>
       <use x="1199.175781" xlink:href="#DejaVuSans-46"/>
       <use x="1230.962891" xlink:href="#DejaVuSans-100"/>
       <use x="1294.439453" xlink:href="#DejaVuSans-101"/>
      </g>
     </g>
    </g>
   </g>
   <g id="matplotlib.axis_2">
    <g id="ytick_1">
     <g id="line2d_6">
      <defs>
       <path d="M 0 0 
L -3.5 0 
" id="m1ca129a1b8" style="stroke:#000000;stroke-width:0.8;"/>
      </defs>
      <g>
       <use style="stroke:#000000;stroke-width:0.8;" x="69.978125" xlink:href="#m1ca129a1b8" y="464.796562"/>
      </g>
     </g>
     <g id="text_6">
      <!-- 0 -->
      <g transform="translate(51.525625 471.635156)scale(0.18 -0.18)">
       <defs>
        <path d="M 31.78125 66.40625 
Q 24.171875 66.40625 20.328125 58.90625 
Q 16.5 51.421875 16.5 36.375 
Q 16.5 21.390625 20.328125 13.890625 
Q 24.171875 6.390625 31.78125 6.390625 
Q 39.453125 6.390625 43.28125 13.890625 
Q 47.125 21.390625 47.125 36.375 
Q 47.125 51.421875 43.28125 58.90625 
Q 39.453125 66.40625 31.78125 66.40625 
z
M 31.78125 74.21875 
Q 44.046875 74.21875 50.515625 64.515625 
Q 56.984375 54.828125 56.984375 36.375 
Q 56.984375 17.96875 50.515625 8.265625 
Q 44.046875 -1.421875 31.78125 -1.421875 
Q 19.53125 -1.421875 13.0625 8.265625 
Q 6.59375 17.96875 6.59375 36.375 
Q 6.59375 54.828125 13.0625 64.515625 
Q 19.53125 74.21875 31.78125 74.21875 
z
" id="DejaVuSans-48"/>
       </defs>
       <use xlink:href="#DejaVuSans-48"/>
      </g>
     </g>
    </g>
    <g id="ytick_2">
     <g id="line2d_7">
      <g>
       <use style="stroke:#000000;stroke-width:0.8;" x="69.978125" xlink:href="#m1ca129a1b8" y="413.664287"/>
      </g>
     </g>
     <g id="text_7">
      <!-- 50 -->
      <g transform="translate(40.073125 420.502881)scale(0.18 -0.18)">
       <defs>
        <path d="M 10.796875 72.90625 
L 49.515625 72.90625 
L 49.515625 64.59375 
L 19.828125 64.59375 
L 19.828125 46.734375 
Q 21.96875 47.46875 24.109375 47.828125 
Q 26.265625 48.1875 28.421875 48.1875 
Q 40.625 48.1875 47.75 41.5 
Q 54.890625 34.8125 54.890625 23.390625 
Q 54.890625 11.625 47.5625 5.09375 
Q 40.234375 -1.421875 26.90625 -1.421875 
Q 22.3125 -1.421875 17.546875 -0.640625 
Q 12.796875 0.140625 7.71875 1.703125 
L 7.71875 11.625 
Q 12.109375 9.234375 16.796875 8.0625 
Q 21.484375 6.890625 26.703125 6.890625 
Q 35.15625 6.890625 40.078125 11.328125 
Q 45.015625 15.765625 45.015625 23.390625 
Q 45.015625 31 40.078125 35.4375 
Q 35.15625 39.890625 26.703125 39.890625 
Q 22.75 39.890625 18.8125 39.015625 
Q 14.890625 38.140625 10.796875 36.28125 
z
" id="DejaVuSans-53"/>
       </defs>
       <use xlink:href="#DejaVuSans-53"/>
       <use x="63.623047" xlink:href="#DejaVuSans-48"/>
      </g>
     </g>
    </g>
    <g id="ytick_3">
     <g id="line2d_8">
      <g>
       <use style="stroke:#000000;stroke-width:0.8;" x="69.978125" xlink:href="#m1ca129a1b8" y="362.532012"/>
      </g>
     </g>
     <g id="text_8">
      <!-- 100 -->
      <g transform="translate(28.620625 369.370606)scale(0.18 -0.18)">
       <defs>
        <path d="M 12.40625 8.296875 
L 28.515625 8.296875 
L 28.515625 63.921875 
L 10.984375 60.40625 
L 10.984375 69.390625 
L 28.421875 72.90625 
L 38.28125 72.90625 
L 38.28125 8.296875 
L 54.390625 8.296875 
L 54.390625 0 
L 12.40625 0 
z
" id="DejaVuSans-49"/>
       </defs>
       <use xlink:href="#DejaVuSans-49"/>
       <use x="63.623047" xlink:href="#DejaVuSans-48"/>
       <use x="127.246094" xlink:href="#DejaVuSans-48"/>
      </g>
     </g>
    </g>
    <g id="ytick_4">
     <g id="line2d_9">
      <g>
       <use style="stroke:#000000;stroke-width:0.8;" x="69.978125" xlink:href="#m1ca129a1b8" y="311.399737"/>
      </g>
     </g>
     <g id="text_9">
      <!-- 150 -->
      <g transform="translate(28.620625 318.238331)scale(0.18 -0.18)">
       <use xlink:href="#DejaVuSans-49"/>
       <use x="63.623047" xlink:href="#DejaVuSans-53"/>
       <use x="127.246094" xlink:href="#DejaVuSans-48"/>
      </g>
     </g>
    </g>
    <g id="ytick_5">
     <g id="line2d_10">
      <g>
       <use style="stroke:#000000;stroke-width:0.8;" x="69.978125" xlink:href="#m1ca129a1b8" y="260.267462"/>
      </g>
     </g>
     <g id="text_10">
      <!-- 200 -->
      <g transform="translate(28.620625 267.106056)scale(0.18 -0.18)">
       <defs>
        <path d="M 19.1875 8.296875 
L 53.609375 8.296875 
L 53.609375 0 
L 7.328125 0 
L 7.328125 8.296875 
Q 12.9375 14.109375 22.625 23.890625 
Q 32.328125 33.6875 34.8125 36.53125 
Q 39.546875 41.84375 41.421875 45.53125 
Q 43.3125 49.21875 43.3125 52.78125 
Q 43.3125 58.59375 39.234375 62.25 
Q 35.15625 65.921875 28.609375 65.921875 
Q 23.96875 65.921875 18.8125 64.3125 
Q 13.671875 62.703125 7.8125 59.421875 
L 7.8125 69.390625 
Q 13.765625 71.78125 18.9375 73 
Q 24.125 74.21875 28.421875 74.21875 
Q 39.75 74.21875 46.484375 68.546875 
Q 53.21875 62.890625 53.21875 53.421875 
Q 53.21875 48.921875 51.53125 44.890625 
Q 49.859375 40.875 45.40625 35.40625 
Q 44.1875 33.984375 37.640625 27.21875 
Q 31.109375 20.453125 19.1875 8.296875 
z
" id="DejaVuSans-50"/>
       </defs>
       <use xlink:href="#DejaVuSans-50"/>
       <use x="63.623047" xlink:href="#DejaVuSans-48"/>
       <use x="127.246094" xlink:href="#DejaVuSans-48"/>
      </g>
     </g>
    </g>
    <g id="ytick_6">
     <g id="line2d_11">
      <g>
       <use style="stroke:#000000;stroke-width:0.8;" x="69.978125" xlink:href="#m1ca129a1b8" y="209.135187"/>
      </g>
     </g>
     <g id="text_11">
      <!-- 250 -->
      <g transform="translate(28.620625 215.973781)scale(0.18 -0.18)">
       <use xlink:href="#DejaVuSans-50"/>
       <use x="63.623047" xlink:href="#DejaVuSans-53"/>
       <use x="127.246094" xlink:href="#DejaVuSans-48"/>
      </g>
     </g>
    </g>
    <g id="ytick_7">
     <g id="line2d_12">
      <g>
       <use style="stroke:#000000;stroke-width:0.8;" x="69.978125" xlink:href="#m1ca129a1b8" y="158.002912"/>
      </g>
     </g>
     <g id="text_12">
      <!-- 300 -->
      <g transform="translate(28.620625 164.841505)scale(0.18 -0.18)">
       <defs>
        <path d="M 40.578125 39.3125 
Q 47.65625 37.796875 51.625 33 
Q 55.609375 28.21875 55.609375 21.1875 
Q 55.609375 10.40625 48.1875 4.484375 
Q 40.765625 -1.421875 27.09375 -1.421875 
Q 22.515625 -1.421875 17.65625 -0.515625 
Q 12.796875 0.390625 7.625 2.203125 
L 7.625 11.71875 
Q 11.71875 9.328125 16.59375 8.109375 
Q 21.484375 6.890625 26.8125 6.890625 
Q 36.078125 6.890625 40.9375 10.546875 
Q 45.796875 14.203125 45.796875 21.1875 
Q 45.796875 27.640625 41.28125 31.265625 
Q 36.765625 34.90625 28.71875 34.90625 
L 20.21875 34.90625 
L 20.21875 43.015625 
L 29.109375 43.015625 
Q 36.375 43.015625 40.234375 45.921875 
Q 44.09375 48.828125 44.09375 54.296875 
Q 44.09375 59.90625 40.109375 62.90625 
Q 36.140625 65.921875 28.71875 65.921875 
Q 24.65625 65.921875 20.015625 65.03125 
Q 15.375 64.15625 9.8125 62.3125 
L 9.8125 71.09375 
Q 15.4375 72.65625 20.34375 73.4375 
Q 25.25 74.21875 29.59375 74.21875 
Q 40.828125 74.21875 47.359375 69.109375 
Q 53.90625 64.015625 53.90625 55.328125 
Q 53.90625 49.265625 50.4375 45.09375 
Q 46.96875 40.921875 40.578125 39.3125 
z
" id="DejaVuSans-51"/>
       </defs>
       <use xlink:href="#DejaVuSans-51"/>
       <use x="63.623047" xlink:href="#DejaVuSans-48"/>
       <use x="127.246094" xlink:href="#DejaVuSans-48"/>
      </g>
     </g>
    </g>
    <g id="ytick_8">
     <g id="line2d_13">
      <g>
       <use style="stroke:#000000;stroke-width:0.8;" x="69.978125" xlink:href="#m1ca129a1b8" y="106.870637"/>
      </g>
     </g>
     <g id="text_13">
      <!-- 350 -->
      <g transform="translate(28.620625 113.70923)scale(0.18 -0.18)">
       <use xlink:href="#DejaVuSans-51"/>
       <use x="63.623047" xlink:href="#DejaVuSans-53"/>
       <use x="127.246094" xlink:href="#DejaVuSans-48"/>
      </g>
     </g>
    </g>
    <g id="ytick_9">
     <g id="line2d_14">
      <g>
       <use style="stroke:#000000;stroke-width:0.8;" x="69.978125" xlink:href="#m1ca129a1b8" y="55.738361"/>
      </g>
     </g>
     <g id="text_14">
      <!-- 400 -->
      <g transform="translate(28.620625 62.576955)scale(0.18 -0.18)">
       <defs>
        <path d="M 37.796875 64.3125 
L 12.890625 25.390625 
L 37.796875 25.390625 
z
M 35.203125 72.90625 
L 47.609375 72.90625 
L 47.609375 25.390625 
L 58.015625 25.390625 
L 58.015625 17.1875 
L 47.609375 17.1875 
L 47.609375 0 
L 37.796875 0 
L 37.796875 17.1875 
L 4.890625 17.1875 
L 4.890625 26.703125 
z
" id="DejaVuSans-52"/>
       </defs>
       <use xlink:href="#DejaVuSans-52"/>
       <use x="63.623047" xlink:href="#DejaVuSans-48"/>
       <use x="127.246094" xlink:href="#DejaVuSans-48"/>
      </g>
     </g>
    </g>
    <g id="text_15">
     <!-- Count -->
     <g transform="translate(20.877188 274.08375)rotate(-90)scale(0.18 -0.18)">
      <defs>
       <path d="M 64.40625 67.28125 
L 64.40625 56.890625 
Q 59.421875 61.53125 53.78125 63.8125 
Q 48.140625 66.109375 41.796875 66.109375 
Q 29.296875 66.109375 22.65625 58.46875 
Q 16.015625 50.828125 16.015625 36.375 
Q 16.015625 21.96875 22.65625 14.328125 
Q 29.296875 6.6875 41.796875 6.6875 
Q 48.140625 6.6875 53.78125 8.984375 
Q 59.421875 11.28125 64.40625 15.921875 
L 64.40625 5.609375 
Q 59.234375 2.09375 53.4375 0.328125 
Q 47.65625 -1.421875 41.21875 -1.421875 
Q 24.65625 -1.421875 15.125 8.703125 
Q 5.609375 18.84375 5.609375 36.375 
Q 5.609375 53.953125 15.125 64.078125 
Q 24.65625 74.21875 41.21875 74.21875 
Q 47.75 74.21875 53.53125 72.484375 
Q 59.328125 70.75 64.40625 67.28125 
z
" id="DejaVuSans-67"/>
       <path d="M 54.890625 33.015625 
L 54.890625 0 
L 45.90625 0 
L 45.90625 32.71875 
Q 45.90625 40.484375 42.875 44.328125 
Q 39.84375 48.1875 33.796875 48.1875 
Q 26.515625 48.1875 22.3125 43.546875 
Q 18.109375 38.921875 18.109375 30.90625 
L 18.109375 0 
L 9.078125 0 
L 9.078125 54.6875 
L 18.109375 54.6875 
L 18.109375 46.1875 
Q 21.34375 51.125 25.703125 53.5625 
Q 30.078125 56 35.796875 56 
Q 45.21875 56 50.046875 50.171875 
Q 54.890625 44.34375 54.890625 33.015625 
z
" id="DejaVuSans-110"/>
      </defs>
      <use xlink:href="#DejaVuSans-67"/>
      <use x="69.824219" xlink:href="#DejaVuSans-111"/>
      <use x="131.005859" xlink:href="#DejaVuSans-117"/>
      <use x="194.384766" xlink:href="#DejaVuSans-110"/>
      <use x="257.763672" xlink:href="#DejaVuSans-116"/>
     </g>
    </g>
   </g>
   <g id="line2d_15">
    <path clip-path="url(#pbb1ab27efb)" d="M 0 0 
" style="fill:none;stroke:#424242;stroke-linecap:square;stroke-width:2.7;"/>
   </g>
   <g id="line2d_16">
    <path clip-path="url(#pbb1ab27efb)" d="M 0 0 
" style="fill:none;stroke:#424242;stroke-linecap:square;stroke-width:2.7;"/>
   </g>
   <g id="line2d_17">
    <path clip-path="url(#pbb1ab27efb)" d="M 0 0 
" style="fill:none;stroke:#424242;stroke-linecap:square;stroke-width:2.7;"/>
   </g>
   <g id="line2d_18">
    <path clip-path="url(#pbb1ab27efb)" d="M 0 0 
" style="fill:none;stroke:#424242;stroke-linecap:square;stroke-width:2.7;"/>
   </g>
   <g id="line2d_19">
    <path clip-path="url(#pbb1ab27efb)" d="M 0 0 
" style="fill:none;stroke:#424242;stroke-linecap:square;stroke-width:2.7;"/>
   </g>
   <g id="line2d_20">
    <path clip-path="url(#pbb1ab27efb)" d="M 0 0 
" style="fill:none;stroke:#424242;stroke-linecap:square;stroke-width:2.7;"/>
   </g>
   <g id="line2d_21">
    <path clip-path="url(#pbb1ab27efb)" d="M 0 0 
" style="fill:none;stroke:#424242;stroke-linecap:square;stroke-width:2.7;"/>
   </g>
   <g id="line2d_22">
    <path clip-path="url(#pbb1ab27efb)" d="M 0 0 
" style="fill:none;stroke:#424242;stroke-linecap:square;stroke-width:2.7;"/>
   </g>
   <g id="line2d_23">
    <path clip-path="url(#pbb1ab27efb)" d="M 0 0 
" style="fill:none;stroke:#424242;stroke-linecap:square;stroke-width:2.7;"/>
   </g>
   <g id="line2d_24">
    <path clip-path="url(#pbb1ab27efb)" d="M 0 0 
" style="fill:none;stroke:#424242;stroke-linecap:square;stroke-width:2.7;"/>
   </g>
   <g id="line2d_25">
    <path clip-path="url(#pbb1ab27efb)" d="M 0 0 
" style="fill:none;stroke:#424242;stroke-linecap:square;stroke-width:2.7;"/>
   </g>
   <g id="line2d_26">
    <path clip-path="url(#pbb1ab27efb)" d="M 0 0 
" style="fill:none;stroke:#424242;stroke-linecap:square;stroke-width:2.7;"/>
   </g>
   <g id="line2d_27">
    <path clip-path="url(#pbb1ab27efb)" d="M 0 0 
" style="fill:none;stroke:#424242;stroke-linecap:square;stroke-width:2.7;"/>
   </g>
   <g id="line2d_28">
    <path clip-path="url(#pbb1ab27efb)" d="M 0 0 
" style="fill:none;stroke:#424242;stroke-linecap:square;stroke-width:2.7;"/>
   </g>
   <g id="line2d_29">
    <path clip-path="url(#pbb1ab27efb)" d="M 0 0 
" style="fill:none;stroke:#424242;stroke-linecap:square;stroke-width:2.7;"/>
   </g>
   <g id="line2d_30">
    <path clip-path="url(#pbb1ab27efb)" d="M 0 0 
" style="fill:none;stroke:#424242;stroke-linecap:square;stroke-width:2.7;"/>
   </g>
   <g id="line2d_31">
    <path clip-path="url(#pbb1ab27efb)" d="M 0 0 
" style="fill:none;stroke:#424242;stroke-linecap:square;stroke-width:2.7;"/>
   </g>
   <g id="line2d_32">
    <path clip-path="url(#pbb1ab27efb)" d="M 0 0 
" style="fill:none;stroke:#424242;stroke-linecap:square;stroke-width:2.7;"/>
   </g>
   <g id="line2d_33">
    <path clip-path="url(#pbb1ab27efb)" d="M 0 0 
" style="fill:none;stroke:#424242;stroke-linecap:square;stroke-width:2.7;"/>
   </g>
   <g id="line2d_34">
    <path clip-path="url(#pbb1ab27efb)" d="M 0 0 
" style="fill:none;stroke:#424242;stroke-linecap:square;stroke-width:2.7;"/>
   </g>
   <g id="line2d_35">
    <path clip-path="url(#pbb1ab27efb)" d="M 0 0 
" style="fill:none;stroke:#424242;stroke-linecap:square;stroke-width:2.7;"/>
   </g>
   <g id="line2d_36">
    <path clip-path="url(#pbb1ab27efb)" d="M 0 0 
" style="fill:none;stroke:#424242;stroke-linecap:square;stroke-width:2.7;"/>
   </g>
   <g id="line2d_37">
    <path clip-path="url(#pbb1ab27efb)" d="M 0 0 
" style="fill:none;stroke:#424242;stroke-linecap:square;stroke-width:2.7;"/>
   </g>
   <g id="line2d_38">
    <path clip-path="url(#pbb1ab27efb)" d="M 0 0 
" style="fill:none;stroke:#424242;stroke-linecap:square;stroke-width:2.7;"/>
   </g>
   <g id="line2d_39">
    <path clip-path="url(#pbb1ab27efb)" d="M 0 0 
" style="fill:none;stroke:#424242;stroke-linecap:square;stroke-width:2.7;"/>
   </g>
   <g id="line2d_40">
    <path clip-path="url(#pbb1ab27efb)" d="M 0 0 
" style="fill:none;stroke:#424242;stroke-linecap:square;stroke-width:2.7;"/>
   </g>
   <g id="line2d_41">
    <path clip-path="url(#pbb1ab27efb)" d="M 0 0 
" style="fill:none;stroke:#424242;stroke-linecap:square;stroke-width:2.7;"/>
   </g>
   <g id="line2d_42">
    <path clip-path="url(#pbb1ab27efb)" d="M 0 0 
" style="fill:none;stroke:#424242;stroke-linecap:square;stroke-width:2.7;"/>
   </g>
   <g id="line2d_43">
    <path clip-path="url(#pbb1ab27efb)" d="M 0 0 
" style="fill:none;stroke:#424242;stroke-linecap:square;stroke-width:2.7;"/>
   </g>
   <g id="line2d_44">
    <path clip-path="url(#pbb1ab27efb)" d="M 0 0 
" style="fill:none;stroke:#424242;stroke-linecap:square;stroke-width:2.7;"/>
   </g>
   <g id="line2d_45">
    <path clip-path="url(#pbb1ab27efb)" d="M 0 0 
" style="fill:none;stroke:#424242;stroke-linecap:square;stroke-width:2.7;"/>
   </g>
   <g id="line2d_46">
    <path clip-path="url(#pbb1ab27efb)" d="M 0 0 
" style="fill:none;stroke:#424242;stroke-linecap:square;stroke-width:2.7;"/>
   </g>
   <g id="line2d_47">
    <path clip-path="url(#pbb1ab27efb)" d="M 0 0 
" style="fill:none;stroke:#424242;stroke-linecap:square;stroke-width:2.7;"/>
   </g>
   <g id="line2d_48">
    <path clip-path="url(#pbb1ab27efb)" d="M 0 0 
" style="fill:none;stroke:#424242;stroke-linecap:square;stroke-width:2.7;"/>
   </g>
   <g id="line2d_49">
    <path clip-path="url(#pbb1ab27efb)" d="M 0 0 
" style="fill:none;stroke:#424242;stroke-linecap:square;stroke-width:2.7;"/>
   </g>
   <g id="line2d_50">
    <path clip-path="url(#pbb1ab27efb)" d="M 0 0 
" style="fill:none;stroke:#424242;stroke-linecap:square;stroke-width:2.7;"/>
   </g>
   <g id="line2d_51">
    <path clip-path="url(#pbb1ab27efb)" d="M 0 0 
" style="fill:none;stroke:#424242;stroke-linecap:square;stroke-width:2.7;"/>
   </g>
   <g id="line2d_52">
    <path clip-path="url(#pbb1ab27efb)" d="M 0 0 
" style="fill:none;stroke:#424242;stroke-linecap:square;stroke-width:2.7;"/>
   </g>
   <g id="line2d_53">
    <path clip-path="url(#pbb1ab27efb)" d="M 0 0 
" style="fill:none;stroke:#424242;stroke-linecap:square;stroke-width:2.7;"/>
   </g>
   <g id="line2d_54">
    <path clip-path="url(#pbb1ab27efb)" d="M 0 0 
" style="fill:none;stroke:#424242;stroke-linecap:square;stroke-width:2.7;"/>
   </g>
   <g id="patch_43">
    <path d="M 69.978125 464.796562 
L 69.978125 29.916562 
" style="fill:none;stroke:#000000;stroke-linecap:square;stroke-linejoin:miter;stroke-width:0.8;"/>
   </g>
   <g id="patch_44">
    <path d="M 1464.978125 464.796562 
L 1464.978125 29.916562 
" style="fill:none;stroke:#000000;stroke-linecap:square;stroke-linejoin:miter;stroke-width:0.8;"/>
   </g>
   <g id="patch_45">
    <path d="M 69.978125 464.796562 
L 1464.978125 464.796562 
" style="fill:none;stroke:#000000;stroke-linecap:square;stroke-linejoin:miter;stroke-width:0.8;"/>
   </g>
   <g id="patch_46">
    <path d="M 69.978125 29.916562 
L 1464.978125 29.916562 
" style="fill:none;stroke:#000000;stroke-linecap:square;stroke-linejoin:miter;stroke-width:0.8;"/>
   </g>
   <g id="text_16">
    <!-- Top 5 Domains in COVID-tweets in 2020 per party -->
    <g transform="translate(493.899531 23.916562)scale(0.22 -0.22)">
     <defs>
      <path d="M -0.296875 72.90625 
L 61.375 72.90625 
L 61.375 64.59375 
L 35.5 64.59375 
L 35.5 0 
L 25.59375 0 
L 25.59375 64.59375 
L -0.296875 64.59375 
z
" id="DejaVuSans-84"/>
      <path id="DejaVuSans-32"/>
      <path d="M 19.671875 64.796875 
L 19.671875 8.109375 
L 31.59375 8.109375 
Q 46.6875 8.109375 53.6875 14.9375 
Q 60.6875 21.78125 60.6875 36.53125 
Q 60.6875 51.171875 53.6875 57.984375 
Q 46.6875 64.796875 31.59375 64.796875 
z
M 9.8125 72.90625 
L 30.078125 72.90625 
Q 51.265625 72.90625 61.171875 64.09375 
Q 71.09375 55.28125 71.09375 36.53125 
Q 71.09375 17.671875 61.125 8.828125 
Q 51.171875 0 30.078125 0 
L 9.8125 0 
z
" id="DejaVuSans-68"/>
      <path d="M 39.40625 66.21875 
Q 28.65625 66.21875 22.328125 58.203125 
Q 16.015625 50.203125 16.015625 36.375 
Q 16.015625 22.609375 22.328125 14.59375 
Q 28.65625 6.59375 39.40625 6.59375 
Q 50.140625 6.59375 56.421875 14.59375 
Q 62.703125 22.609375 62.703125 36.375 
Q 62.703125 50.203125 56.421875 58.203125 
Q 50.140625 66.21875 39.40625 66.21875 
z
M 39.40625 74.21875 
Q 54.734375 74.21875 63.90625 63.9375 
Q 73.09375 53.65625 73.09375 36.375 
Q 73.09375 19.140625 63.90625 8.859375 
Q 54.734375 -1.421875 39.40625 -1.421875 
Q 24.03125 -1.421875 14.8125 8.828125 
Q 5.609375 19.09375 5.609375 36.375 
Q 5.609375 53.65625 14.8125 63.9375 
Q 24.03125 74.21875 39.40625 74.21875 
z
" id="DejaVuSans-79"/>
      <path d="M 28.609375 0 
L 0.78125 72.90625 
L 11.078125 72.90625 
L 34.1875 11.53125 
L 57.328125 72.90625 
L 67.578125 72.90625 
L 39.796875 0 
z
" id="DejaVuSans-86"/>
      <path d="M 9.8125 72.90625 
L 19.671875 72.90625 
L 19.671875 0 
L 9.8125 0 
z
" id="DejaVuSans-73"/>
      <path d="M 4.890625 31.390625 
L 31.203125 31.390625 
L 31.203125 23.390625 
L 4.890625 23.390625 
z
" id="DejaVuSans-45"/>
      <path d="M 41.109375 46.296875 
Q 39.59375 47.171875 37.8125 47.578125 
Q 36.03125 48 33.890625 48 
Q 26.265625 48 22.1875 43.046875 
Q 18.109375 38.09375 18.109375 28.8125 
L 18.109375 0 
L 9.078125 0 
L 9.078125 54.6875 
L 18.109375 54.6875 
L 18.109375 46.1875 
Q 20.953125 51.171875 25.484375 53.578125 
Q 30.03125 56 36.53125 56 
Q 37.453125 56 38.578125 55.875 
Q 39.703125 55.765625 41.0625 55.515625 
z
" id="DejaVuSans-114"/>
     </defs>
     <use xlink:href="#DejaVuSans-84"/>
     <use x="44.083984" xlink:href="#DejaVuSans-111"/>
     <use x="105.265625" xlink:href="#DejaVuSans-112"/>
     <use x="168.742188" xlink:href="#DejaVuSans-32"/>
     <use x="200.529297" xlink:href="#DejaVuSans-53"/>
     <use x="264.152344" xlink:href="#DejaVuSans-32"/>
     <use x="295.939453" xlink:href="#DejaVuSans-68"/>
     <use x="372.941406" xlink:href="#DejaVuSans-111"/>
     <use x="434.123047" xlink:href="#DejaVuSans-109"/>
     <use x="531.535156" xlink:href="#DejaVuSans-97"/>
     <use x="592.814453" xlink:href="#DejaVuSans-105"/>
     <use x="620.597656" xlink:href="#DejaVuSans-110"/>
     <use x="683.976562" xlink:href="#DejaVuSans-115"/>
     <use x="736.076172" xlink:href="#DejaVuSans-32"/>
     <use x="767.863281" xlink:href="#DejaVuSans-105"/>
     <use x="795.646484" xlink:href="#DejaVuSans-110"/>
     <use x="859.025391" xlink:href="#DejaVuSans-32"/>
     <use x="890.8125" xlink:href="#DejaVuSans-67"/>
     <use x="960.636719" xlink:href="#DejaVuSans-79"/>
     <use x="1037.597656" xlink:href="#DejaVuSans-86"/>
     <use x="1106.005859" xlink:href="#DejaVuSans-73"/>
     <use x="1135.498047" xlink:href="#DejaVuSans-68"/>
     <use x="1212.5" xlink:href="#DejaVuSans-45"/>
     <use x="1248.583984" xlink:href="#DejaVuSans-116"/>
     <use x="1287.792969" xlink:href="#DejaVuSans-119"/>
     <use x="1369.580078" xlink:href="#DejaVuSans-101"/>
     <use x="1431.103516" xlink:href="#DejaVuSans-101"/>
     <use x="1492.626953" xlink:href="#DejaVuSans-116"/>
     <use x="1531.835938" xlink:href="#DejaVuSans-115"/>
     <use x="1583.935547" xlink:href="#DejaVuSans-32"/>
     <use x="1615.722656" xlink:href="#DejaVuSans-105"/>
     <use x="1643.505859" xlink:href="#DejaVuSans-110"/>
     <use x="1706.884766" xlink:href="#DejaVuSans-32"/>
     <use x="1738.671875" xlink:href="#DejaVuSans-50"/>
     <use x="1802.294922" xlink:href="#DejaVuSans-48"/>
     <use x="1865.917969" xlink:href="#DejaVuSans-50"/>
     <use x="1929.541016" xlink:href="#DejaVuSans-48"/>
     <use x="1993.164062" xlink:href="#DejaVuSans-32"/>
     <use x="2024.951172" xlink:href="#DejaVuSans-112"/>
     <use x="2088.427734" xlink:href="#DejaVuSans-101"/>
     <use x="2149.951172" xlink:href="#DejaVuSans-114"/>
     <use x="2191.064453" xlink:href="#DejaVuSans-32"/>
     <use x="2222.851562" xlink:href="#DejaVuSans-112"/>
     <use x="2286.328125" xlink:href="#DejaVuSans-97"/>
     <use x="2347.607422" xlink:href="#DejaVuSans-114"/>
     <use x="2388.720703" xlink:href="#DejaVuSans-116"/>
     <use x="2427.929688" xlink:href="#DejaVuSans-121"/>
    </g>
   </g>
   <g id="legend_1">
    <g id="patch_47">
     <path d="M 1216.473125 230.596562 
L 1453.778125 230.596562 
Q 1456.978125 230.596562 1456.978125 227.396562 
L 1456.978125 41.116562 
Q 1456.978125 37.916562 1453.778125 37.916562 
L 1216.473125 37.916562 
Q 1213.273125 37.916562 1213.273125 41.116562 
L 1213.273125 227.396562 
Q 1213.273125 230.596562 1216.473125 230.596562 
z
" style="fill:#ffffff;opacity:0.8;stroke:#cccccc;stroke-linejoin:miter;"/>
    </g>
    <g id="patch_48">
     <path d="M 1219.673125 56.474062 
L 1251.673125 56.474062 
L 1251.673125 45.274062 
L 1219.673125 45.274062 
z
" style="fill:#3274a1;"/>
    </g>
    <g id="text_17">
     <!-- AfD -->
     <g transform="translate(1264.473125 56.474062)scale(0.16 -0.16)">
      <defs>
       <path d="M 34.1875 63.1875 
L 20.796875 26.90625 
L 47.609375 26.90625 
z
M 28.609375 72.90625 
L 39.796875 72.90625 
L 67.578125 0 
L 57.328125 0 
L 50.6875 18.703125 
L 17.828125 18.703125 
L 11.1875 0 
L 0.78125 0 
z
" id="DejaVuSans-65"/>
       <path d="M 37.109375 75.984375 
L 37.109375 68.5 
L 28.515625 68.5 
Q 23.6875 68.5 21.796875 66.546875 
Q 19.921875 64.59375 19.921875 59.515625 
L 19.921875 54.6875 
L 34.71875 54.6875 
L 34.71875 47.703125 
L 19.921875 47.703125 
L 19.921875 0 
L 10.890625 0 
L 10.890625 47.703125 
L 2.296875 47.703125 
L 2.296875 54.6875 
L 10.890625 54.6875 
L 10.890625 58.5 
Q 10.890625 67.625 15.140625 71.796875 
Q 19.390625 75.984375 28.609375 75.984375 
z
" id="DejaVuSans-102"/>
      </defs>
      <use xlink:href="#DejaVuSans-65"/>
      <use x="64.783203" xlink:href="#DejaVuSans-102"/>
      <use x="99.988281" xlink:href="#DejaVuSans-68"/>
     </g>
    </g>
    <g id="patch_49">
     <path d="M 1219.673125 79.959062 
L 1251.673125 79.959062 
L 1251.673125 68.759062 
L 1219.673125 68.759062 
z
" style="fill:#3a923a;"/>
    </g>
    <g id="text_18">
     <!-- Bndnis 90/Die Grnen -->
     <g transform="translate(1264.473125 79.959062)scale(0.16 -0.16)">
      <defs>
       <path d="M 19.671875 34.8125 
L 19.671875 8.109375 
L 35.5 8.109375 
Q 43.453125 8.109375 47.28125 11.40625 
Q 51.125 14.703125 51.125 21.484375 
Q 51.125 28.328125 47.28125 31.5625 
Q 43.453125 34.8125 35.5 34.8125 
z
M 19.671875 64.796875 
L 19.671875 42.828125 
L 34.28125 42.828125 
Q 41.5 42.828125 45.03125 45.53125 
Q 48.578125 48.25 48.578125 53.8125 
Q 48.578125 59.328125 45.03125 62.0625 
Q 41.5 64.796875 34.28125 64.796875 
z
M 9.8125 72.90625 
L 35.015625 72.90625 
Q 46.296875 72.90625 52.390625 68.21875 
Q 58.5 63.53125 58.5 54.890625 
Q 58.5 48.1875 55.375 44.234375 
Q 52.25 40.28125 46.1875 39.3125 
Q 53.46875 37.75 57.5 32.78125 
Q 61.53125 27.828125 61.53125 20.40625 
Q 61.53125 10.640625 54.890625 5.3125 
Q 48.25 0 35.984375 0 
L 9.8125 0 
z
" id="DejaVuSans-66"/>
       <path d="M 8.5 21.578125 
L 8.5 54.6875 
L 17.484375 54.6875 
L 17.484375 21.921875 
Q 17.484375 14.15625 20.5 10.265625 
Q 23.53125 6.390625 29.59375 6.390625 
Q 36.859375 6.390625 41.078125 11.03125 
Q 45.3125 15.671875 45.3125 23.6875 
L 45.3125 54.6875 
L 54.296875 54.6875 
L 54.296875 0 
L 45.3125 0 
L 45.3125 8.40625 
Q 42.046875 3.421875 37.71875 1 
Q 33.40625 -1.421875 27.6875 -1.421875 
Q 18.265625 -1.421875 13.375 4.4375 
Q 8.5 10.296875 8.5 21.578125 
z
M 31.109375 56 
z
M 35.59375 75.78125 
L 45.5 75.78125 
L 45.5 65.921875 
L 35.59375 65.921875 
z
M 16.5 75.78125 
L 26.40625 75.78125 
L 26.40625 65.921875 
L 16.5 65.921875 
z
" id="DejaVuSans-252"/>
       <path d="M 10.984375 1.515625 
L 10.984375 10.5 
Q 14.703125 8.734375 18.5 7.8125 
Q 22.3125 6.890625 25.984375 6.890625 
Q 35.75 6.890625 40.890625 13.453125 
Q 46.046875 20.015625 46.78125 33.40625 
Q 43.953125 29.203125 39.59375 26.953125 
Q 35.25 24.703125 29.984375 24.703125 
Q 19.046875 24.703125 12.671875 31.3125 
Q 6.296875 37.9375 6.296875 49.421875 
Q 6.296875 60.640625 12.9375 67.421875 
Q 19.578125 74.21875 30.609375 74.21875 
Q 43.265625 74.21875 49.921875 64.515625 
Q 56.59375 54.828125 56.59375 36.375 
Q 56.59375 19.140625 48.40625 8.859375 
Q 40.234375 -1.421875 26.421875 -1.421875 
Q 22.703125 -1.421875 18.890625 -0.6875 
Q 15.09375 0.046875 10.984375 1.515625 
z
M 30.609375 32.421875 
Q 37.25 32.421875 41.125 36.953125 
Q 45.015625 41.5 45.015625 49.421875 
Q 45.015625 57.28125 41.125 61.84375 
Q 37.25 66.40625 30.609375 66.40625 
Q 23.96875 66.40625 20.09375 61.84375 
Q 16.21875 57.28125 16.21875 49.421875 
Q 16.21875 41.5 20.09375 36.953125 
Q 23.96875 32.421875 30.609375 32.421875 
z
" id="DejaVuSans-57"/>
       <path d="M 59.515625 10.40625 
L 59.515625 29.984375 
L 43.40625 29.984375 
L 43.40625 38.09375 
L 69.28125 38.09375 
L 69.28125 6.78125 
Q 63.578125 2.734375 56.6875 0.65625 
Q 49.8125 -1.421875 42 -1.421875 
Q 24.90625 -1.421875 15.25 8.5625 
Q 5.609375 18.5625 5.609375 36.375 
Q 5.609375 54.25 15.25 64.234375 
Q 24.90625 74.21875 42 74.21875 
Q 49.125 74.21875 55.546875 72.453125 
Q 61.96875 70.703125 67.390625 67.28125 
L 67.390625 56.78125 
Q 61.921875 61.421875 55.765625 63.765625 
Q 49.609375 66.109375 42.828125 66.109375 
Q 29.4375 66.109375 22.71875 58.640625 
Q 16.015625 51.171875 16.015625 36.375 
Q 16.015625 21.625 22.71875 14.15625 
Q 29.4375 6.6875 42.828125 6.6875 
Q 48.046875 6.6875 52.140625 7.59375 
Q 56.25 8.5 59.515625 10.40625 
z
" id="DejaVuSans-71"/>
      </defs>
      <use xlink:href="#DejaVuSans-66"/>
      <use x="68.603516" xlink:href="#DejaVuSans-252"/>
      <use x="131.982422" xlink:href="#DejaVuSans-110"/>
      <use x="195.361328" xlink:href="#DejaVuSans-100"/>
      <use x="258.837891" xlink:href="#DejaVuSans-110"/>
      <use x="322.216797" xlink:href="#DejaVuSans-105"/>
      <use x="350" xlink:href="#DejaVuSans-115"/>
      <use x="402.099609" xlink:href="#DejaVuSans-32"/>
      <use x="433.886719" xlink:href="#DejaVuSans-57"/>
      <use x="497.509766" xlink:href="#DejaVuSans-48"/>
      <use x="561.132812" xlink:href="#DejaVuSans-47"/>
      <use x="594.824219" xlink:href="#DejaVuSans-68"/>
      <use x="671.826172" xlink:href="#DejaVuSans-105"/>
      <use x="699.609375" xlink:href="#DejaVuSans-101"/>
      <use x="761.132812" xlink:href="#DejaVuSans-32"/>
      <use x="792.919922" xlink:href="#DejaVuSans-71"/>
      <use x="870.410156" xlink:href="#DejaVuSans-114"/>
      <use x="911.523438" xlink:href="#DejaVuSans-252"/>
      <use x="974.902344" xlink:href="#DejaVuSans-110"/>
      <use x="1038.28125" xlink:href="#DejaVuSans-101"/>
      <use x="1099.804688" xlink:href="#DejaVuSans-110"/>
     </g>
    </g>
    <g id="patch_50">
     <path d="M 1219.673125 103.444062 
L 1251.673125 103.444062 
L 1251.673125 92.244062 
L 1219.673125 92.244062 
z
"/>
    </g>
    <g id="text_19">
     <!-- CDU -->
     <g transform="translate(1264.473125 103.444062)scale(0.16 -0.16)">
      <defs>
       <path d="M 8.6875 72.90625 
L 18.609375 72.90625 
L 18.609375 28.609375 
Q 18.609375 16.890625 22.84375 11.734375 
Q 27.09375 6.59375 36.625 6.59375 
Q 46.09375 6.59375 50.34375 11.734375 
Q 54.59375 16.890625 54.59375 28.609375 
L 54.59375 72.90625 
L 64.5 72.90625 
L 64.5 27.390625 
Q 64.5 13.140625 57.4375 5.859375 
Q 50.390625 -1.421875 36.625 -1.421875 
Q 22.796875 -1.421875 15.734375 5.859375 
Q 8.6875 13.140625 8.6875 27.390625 
z
" id="DejaVuSans-85"/>
      </defs>
      <use xlink:href="#DejaVuSans-67"/>
      <use x="69.824219" xlink:href="#DejaVuSans-68"/>
      <use x="146.826172" xlink:href="#DejaVuSans-85"/>
     </g>
    </g>
    <g id="patch_51">
     <path d="M 1219.673125 126.929062 
L 1251.673125 126.929062 
L 1251.673125 115.729062 
L 1219.673125 115.729062 
z
" style="fill:#2eabb8;"/>
    </g>
    <g id="text_20">
     <!-- CSU -->
     <g transform="translate(1264.473125 126.929062)scale(0.16 -0.16)">
      <defs>
       <path d="M 53.515625 70.515625 
L 53.515625 60.890625 
Q 47.90625 63.578125 42.921875 64.890625 
Q 37.9375 66.21875 33.296875 66.21875 
Q 25.25 66.21875 20.875 63.09375 
Q 16.5 59.96875 16.5 54.203125 
Q 16.5 49.359375 19.40625 46.890625 
Q 22.3125 44.4375 30.421875 42.921875 
L 36.375 41.703125 
Q 47.40625 39.59375 52.65625 34.296875 
Q 57.90625 29 57.90625 20.125 
Q 57.90625 9.515625 50.796875 4.046875 
Q 43.703125 -1.421875 29.984375 -1.421875 
Q 24.8125 -1.421875 18.96875 -0.25 
Q 13.140625 0.921875 6.890625 3.21875 
L 6.890625 13.375 
Q 12.890625 10.015625 18.65625 8.296875 
Q 24.421875 6.59375 29.984375 6.59375 
Q 38.421875 6.59375 43.015625 9.90625 
Q 47.609375 13.234375 47.609375 19.390625 
Q 47.609375 24.75 44.3125 27.78125 
Q 41.015625 30.8125 33.5 32.328125 
L 27.484375 33.5 
Q 16.453125 35.6875 11.515625 40.375 
Q 6.59375 45.0625 6.59375 53.421875 
Q 6.59375 63.09375 13.40625 68.65625 
Q 20.21875 74.21875 32.171875 74.21875 
Q 37.3125 74.21875 42.625 73.28125 
Q 47.953125 72.359375 53.515625 70.515625 
z
" id="DejaVuSans-83"/>
      </defs>
      <use xlink:href="#DejaVuSans-67"/>
      <use x="69.824219" xlink:href="#DejaVuSans-83"/>
      <use x="133.300781" xlink:href="#DejaVuSans-85"/>
     </g>
    </g>
    <g id="patch_52">
     <path d="M 1219.673125 150.414062 
L 1251.673125 150.414062 
L 1251.673125 139.214062 
L 1219.673125 139.214062 
z
" style="fill:#9372b2;"/>
    </g>
    <g id="text_21">
     <!-- Die Linke -->
     <g transform="translate(1264.473125 150.414062)scale(0.16 -0.16)">
      <defs>
       <path d="M 9.8125 72.90625 
L 19.671875 72.90625 
L 19.671875 8.296875 
L 55.171875 8.296875 
L 55.171875 0 
L 9.8125 0 
z
" id="DejaVuSans-76"/>
       <path d="M 9.078125 75.984375 
L 18.109375 75.984375 
L 18.109375 31.109375 
L 44.921875 54.6875 
L 56.390625 54.6875 
L 27.390625 29.109375 
L 57.625 0 
L 45.90625 0 
L 18.109375 26.703125 
L 18.109375 0 
L 9.078125 0 
z
" id="DejaVuSans-107"/>
      </defs>
      <use xlink:href="#DejaVuSans-68"/>
      <use x="77.001953" xlink:href="#DejaVuSans-105"/>
      <use x="104.785156" xlink:href="#DejaVuSans-101"/>
      <use x="166.308594" xlink:href="#DejaVuSans-32"/>
      <use x="198.095703" xlink:href="#DejaVuSans-76"/>
      <use x="253.808594" xlink:href="#DejaVuSans-105"/>
      <use x="281.591797" xlink:href="#DejaVuSans-110"/>
      <use x="344.970703" xlink:href="#DejaVuSans-107"/>
      <use x="399.255859" xlink:href="#DejaVuSans-101"/>
     </g>
    </g>
    <g id="patch_53">
     <path d="M 1219.673125 173.899062 
L 1251.673125 173.899062 
L 1251.673125 162.699062 
L 1219.673125 162.699062 
z
" style="fill:#dfc120;"/>
    </g>
    <g id="text_22">
     <!-- FDP -->
     <g transform="translate(1264.473125 173.899062)scale(0.16 -0.16)">
      <defs>
       <path d="M 9.8125 72.90625 
L 51.703125 72.90625 
L 51.703125 64.59375 
L 19.671875 64.59375 
L 19.671875 43.109375 
L 48.578125 43.109375 
L 48.578125 34.8125 
L 19.671875 34.8125 
L 19.671875 0 
L 9.8125 0 
z
" id="DejaVuSans-70"/>
       <path d="M 19.671875 64.796875 
L 19.671875 37.40625 
L 32.078125 37.40625 
Q 38.96875 37.40625 42.71875 40.96875 
Q 46.484375 44.53125 46.484375 51.125 
Q 46.484375 57.671875 42.71875 61.234375 
Q 38.96875 64.796875 32.078125 64.796875 
z
M 9.8125 72.90625 
L 32.078125 72.90625 
Q 44.34375 72.90625 50.609375 67.359375 
Q 56.890625 61.8125 56.890625 51.125 
Q 56.890625 40.328125 50.609375 34.8125 
Q 44.34375 29.296875 32.078125 29.296875 
L 19.671875 29.296875 
L 19.671875 0 
L 9.8125 0 
z
" id="DejaVuSans-80"/>
      </defs>
      <use xlink:href="#DejaVuSans-70"/>
      <use x="57.519531" xlink:href="#DejaVuSans-68"/>
      <use x="134.521484" xlink:href="#DejaVuSans-80"/>
     </g>
    </g>
    <g id="patch_54">
     <path d="M 1219.673125 197.384062 
L 1251.673125 197.384062 
L 1251.673125 186.184062 
L 1219.673125 186.184062 
z
" style="fill:#7f7f7f;"/>
    </g>
    <g id="text_23">
     <!-- Fraktionslos -->
     <g transform="translate(1264.473125 197.384062)scale(0.16 -0.16)">
      <use xlink:href="#DejaVuSans-70"/>
      <use x="50.269531" xlink:href="#DejaVuSans-114"/>
      <use x="91.382812" xlink:href="#DejaVuSans-97"/>
      <use x="152.662109" xlink:href="#DejaVuSans-107"/>
      <use x="210.572266" xlink:href="#DejaVuSans-116"/>
      <use x="249.78125" xlink:href="#DejaVuSans-105"/>
      <use x="277.564453" xlink:href="#DejaVuSans-111"/>
      <use x="338.746094" xlink:href="#DejaVuSans-110"/>
      <use x="402.125" xlink:href="#DejaVuSans-115"/>
      <use x="454.224609" xlink:href="#DejaVuSans-108"/>
      <use x="482.007812" xlink:href="#DejaVuSans-111"/>
      <use x="543.189453" xlink:href="#DejaVuSans-115"/>
     </g>
    </g>
    <g id="patch_55">
     <path d="M 1219.673125 220.869062 
L 1251.673125 220.869062 
L 1251.673125 209.669062 
L 1219.673125 209.669062 
z
" style="fill:#c03d3e;"/>
    </g>
    <g id="text_24">
     <!-- SPD -->
     <g transform="translate(1264.473125 220.869062)scale(0.16 -0.16)">
      <use xlink:href="#DejaVuSans-83"/>
      <use x="63.476562" xlink:href="#DejaVuSans-80"/>
      <use x="123.779297" xlink:href="#DejaVuSans-68"/>
     </g>
    </g>
   </g>
  </g>
 </g>
 <defs>
  <clipPath id="pbb1ab27efb">
   <rect height="434.88" width="1395" x="69.978125" y="29.916562"/>
  </clipPath>
 </defs>
</svg>
